# xmcd CD database file
# Copyright (C) 1993-1996 Ti Kan
#
# Track frame offsets:
# 150
# 9417
# 19892
# 29285
# 40337
# 50425
# 60052
# 70435
# 83985
# 92432
# 105067
# 119400
# 131535
# 143042
# 154062
# 164602
# 174740
# 186365
# 200740
# 214130
# 226692
# 238610
# 250937
# 259342
# 268577
# 283340
# 300767
# 314767
# 323125
#
# Disc length: 4430 seconds
#
# Revision: 0
# Processed by: cddbd v1.4b41PL1 Copyright (c) Steve Scherf et al.
# Submitted via: inCDius 1.1b5
#
DISCID=97114c1d
DTITLE=Johnny Duncan - Last Train To San Fernando - Disc 2
DYEAR=1900
DGENRE=
TTITLE0=Itching For My Baby
TTITLE1=I Heard The Bluebirds Sing
TTITLE2=More And More
TTITLE3=Yonder Comes A Sucker
TTITLE4=Geisha Girl
TTITLE5=All Of The Monkeys Ain't In The Zoo
TTITLE6=This Train
TTITLE7=Rosalie
TTITLE8=Hey Good Lookin'
TTITLE9=Wedding Bells
TTITLE10=Moanin' The Blues
TTITLE11=Cold Cold Heart
TTITLE12=Jambalaya
TTITLE13=Your Cheatin' Heart
TTITLE14=Long Gone Lonesome Blues
TTITLE15=Half As Much
TTITLE16=May You Never Be Alone
TTITLE17=Salute To Hank Williams
TTITLE18=My Son Calls Another Man Daddy
TTITLE19=My Lucky Love
TTITLE20=Any Time
TTITLE21=Kansas City
TTITLE22=That's All Right, Darlin'
TTITLE23=Yellow Yellow Moon
TTITLE24=Rockabilly Medley (Raise A Ruckus Tonight/Rockabilly Baby/Detour)
TTITLE25=Waltz Medley (Home On The Range/Tennessee Waltz The Love Song Of The 
TTITLE25=Waterfall)
TTITLE26=Railroad Medley (Pan American Queen/I'm Movin' On/Last Train To San F
TTITLE26=ernando)
TTITLE27=Gospel Medley(Old Time Religion/Just A Little Talk WithJesus/Let The 
TTITLE27=Church Roll On)
TTITLE28=Gospel Medley(Old Time Religion/Just A Little Talk With Jesus/Let The
TTITLE28=Church Roll On)
EXTD=
EXTT0=
EXTT1=
EXTT2=
EXTT3=
EXTT4=
EXTT5=
EXTT6=
EXTT7=
EXTT8=
EXTT9=
EXTT10=
EXTT11=
EXTT12=
EXTT13=
EXTT14=
EXTT15=
EXTT16=
EXTT17=
EXTT18=
EXTT19=
EXTT20=
EXTT21=
EXTT22=
EXTT23=
EXTT24=
EXTT25=
EXTT26=
EXTT27=
EXTT28=Without Overdub
PLAYORDER=
